# AST/ASF file generated using VICON BodyLanguage
# -----------------------------------------------
:version 1.10
:name VICON
:units
  mass 1.0
  length 0.45
  angle deg
:documentation
   .ast/.asf automatically generated from VICON data using
   VICON BodyBuilder and BodyLanguage model FoxedUp or BRILLIANT.MOD
:root
   order TX TY TZ RX RY RZ
   axis XYZ
   position 0 0 0  
   orientation 0 0 0 
:bonedata
  begin
     id 1 
     name lhipjoint
     direction 0.535335 -0.74333 0.401095 
     length 2.04549 
     axis 0 0 0  XYZ
  end
  begin
     id 2 
     name lfemur
     direction 0.34202 -0.939693 0  
     length 6.95643  
     axis 0 0 20  XYZ
    dof rx ry rz
    limits (-160.0 20.0)
           (-70.0 70.0)
           (-60.0 70.0)
  end
  begin
     id 3 
     name ltibia
     direction 0.34192 -0.939729 0   
     length 5.55969   
     axis 0 0 20   XYZ
    dof rx
    limits (-10.0 170.0)
  end
  begin
     id 4 
     name lfoot
     direction 0.216943 -0.596046 0.773088   
     length 2.27918   
     axis -90 7.62852e-016 20   XYZ
    dof rx rz
    limits (-45.0 90.0)
           (-70.0 20.0)
  end
  begin
     id 5 
     name ltoes
     direction 1.53519e-011 -4.21748e-011 1   
     length 1.05562   
     axis -90 7.62852e-016 20   XYZ
    dof rx
    limits (-90.0 20.0)
  end
  begin
     id 6 
     name rhipjoint
     direction -0.576368 -0.719173 0.38806   
     length 2.1142  
     axis 0 0 0  XYZ 
  end
  begin
     id 7 
     name rfemur
     direction -0.34202 -0.939693 0   
     length 7.07928   
     axis 0 0 -20   XYZ
    dof rx ry rz
    limits (-160.0 20.0)
           (-70.0 70.0)
           (-70.0 60.0)
  end
  begin
     id 8 
     name rtibia
     direction -0.34202 -0.939693 0   
     length 5.79974   
     axis 0 0 -20   XYZ
    dof rx
    limits (-10.0 170.0)
 end
 begin
     id 9 
     name rfoot
     direction -0.189288 -0.520065 0.832888   
     length 2.42173  
     axis -90 -7.62852e-016 -20   XYZ
    dof rx rz
    limits (-45.0 90.0)
           (-20.0 70.0)
  end
  begin
     id 10 
     name rtoes
     direction -1.53574e-011 -4.21658e-011 1   
     length 1.14469   
     axis -90 -7.62852e-016 -20   XYZ
    dof rx
    limits (-90.0 20.0)
  end
  begin
     id 11 
     name lowerback
     direction -0.00135702 0.993803 0.111144   
     length 1.91308   
     axis 0 0 0   XYZ
    dof rx ry rz
    limits (-20.0 45.0)
           (-30.0 30.0)
           (-30.0 30.0)
  end
  begin
     id 12 
     name upperback
     direction -0.0056745 0.999813 0.0184631   
     length 1.9212   
     axis 0 0 0   XYZ
    dof rx ry rz
    limits (-20.0 45.0)
           (-30.0 30.0)
           (-30.0 30.0)
  end
  begin
     id 13 
     name thorax
     direction -0.00733434 0.999426 -0.0330788   
     length 1.94196   
     axis 0 0 0   XYZ
    dof rx ry rz
    limits (-20.0 45.0)
           (-30.0 30.0)
           (-30.0 30.0)
  end
  begin
     id 14 
     name lowerneck
     direction 0.0563074 0.996944 -0.0541571   
     length 2.34257   
     axis 0 0 0   XYZ
    dof rx ry rz
    limits (-20.0 45.0)
           (-30.0 30.0)
           (-30.0 30.0)
  end
  begin
     id 15 
     name upperneck
     direction -0.0544519 0.976166 -0.210085   
     length 2.32506   
     axis 0 0 0   XYZ
    dof rx ry rz
    limits (-20.0 45.0)
           (-30.0 30.0)
           (-30.0 30.0)
  end
  begin
     id 16
     name head
     direction -0.0226035 0.997615 -0.0652205  
     length 2.3648  
     axis 0 0 0   XYZ
    dof rx ry rz
    limits (-20.0 45.0)
           (-30.0 30.0)
           (-30.0 30.0)
  end
  begin
     id 17 
     name lclavicle
     direction 0.92109 0.381297 -0.0787716  
     length 4.0487  
     axis 0 0 0   XYZ
    dof ry rz
    limits (-20.0 10.0)
           (0.0 20.0)
  end
  begin
     id 18 
     name lhumerus
     direction 1 -4.48986e-011 3.56724e-027   
     length 4.94991   
     axis 180 -30 -90   XYZ
    dof rx ry rz
    limits (-60.0 90.0)
           (-90.0 90.0)
           (-90.0 90.0)
  end
  begin
     id 19
     name lradius
     direction 1 -4.48981e-011 8.62147e-027   
     length 2.7606   
     axis 180 -30 -90   XYZ
    dof rx
    limits (-10.0 170.0)
  end
  begin
     id 20
     name lwrist
     direction 1 -4.48989e-011 1.59799e-026   
     length 1.3803   
     axis -1.17785e-014 90 90   XYZ
    dof ry
    limits (-180.0 0.0)
 end
  begin
     id 21 
     name lhand
     direction 1 -4.48896e-011 3.19599e-026   
     length 0.843936   
     axis -2.03931e-014 90 90   XYZ
    dof rx rz
    limits (-90.0 90.0)
           (-45.0 45.0)
  end
  begin
     id 22 
     name lfingers
     direction 1 -4.48887e-011 6.39197e-026   
     length 0.680403   
     axis -4.07862e-014 90 90   XYZ
    dof rx
    limits (0.0 90.0)
  end
  begin
     id 23
     name lthumb
     direction 0.707107 -6.348e-011 0.707107   
     length 0.976926   
     axis -90 45 2.85299e-015   XYZ
    dof rx rz
    limits (-45.0 45.0)
           (-45.0 45.0)
  end
  begin
     id 24 
     name rclavicle
     direction -0.951104 0.307692 -0.026953   
     length 4.21801  
     axis 0 0 0   XYZ 
    dof ry rz
    limits (-10.0 20.0)
           (-20.0 0.0)
  end
  begin
     id 25 
     name rhumerus
     direction -1 -4.4896e-011 -1.8171e-018  
     length 4.32982   
     axis 180 30 90   XYZ
    dof rx ry rz
    limits (-90.0 60.0)
           (-90.0 90.0)
           (-90.0 90.0)
  end
  begin
     id 26 
     name rradius
     direction -1 -4.48959e-011 8.25165e-027   
     length 3.20057   
     axis 180 30 90   XYZ
    dof rx
    limits (-10.0 170.0)
  end
  begin
     id 27 
     name rwrist
     direction -1 -4.48997e-011 1.59799e-026   
     length 1.60029   
     axis -1.17785e-014 -90 -90   XYZ
    dof ry
    limits (-180.0 0.0)
  end
  begin
     id 28
     name rhand
     direction -1 -4.49023e-011 3.19599e-026   
     length 0.960433   
     axis -2.03931e-014 -90 -90   XYZ
    dof rx rz
    limits (-90.0 90.0)
           (-45.0 45.0)
  end
  begin
     id 29
     name rfingers
     direction -1 -4.48802e-011 6.39197e-026   
     length 0.774326   
     axis -4.07862e-014 -90 -90   XYZ
    dof rx
    limits (0.0 90.0)
  end
  begin
     id 30
     name rthumb
     direction -0.707107 -6.34876e-011 0.707107   
     length 1.11178   
     axis -90 -45 -2.85299e-015   XYZ
    dof rx rz
    limits (-45.0 45.0)
           (-45.0 45.0)
  end
:hierarchy
  begin
    root lhipjoint rhipjoint lowerback
    lhipjoint lfemur
    lfemur ltibia
    ltibia lfoot
    lfoot ltoes
    rhipjoint rfemur
    rfemur rtibia
    rtibia rfoot
    rfoot rtoes
    lowerback upperback
    upperback thorax
    thorax lowerneck lclavicle rclavicle
    lowerneck upperneck
    upperneck head
    lclavicle lhumerus
    lhumerus lradius
    lradius lwrist
    lwrist lhand lthumb
    lhand lfingers
    rclavicle rhumerus
    rhumerus rradius
    rradius rwrist
    rwrist rhand rthumb
    rhand rfingers
end

#!OML:ASF C:\KaitlinTest1\Natural Motions\Nikki\Session 2\Nikki.ASF
:FULLY-SPECIFIED
:DEGREES
115
root -13.6714 16.6521 4.60009 -107.628 87.9104 -115.838
lowerback -11.0892 -0.873733 2.89115
upperback -3.64474 -1.29762 -1.23644
thorax 2.31321 -0.600584 -3.07807
lowerneck -5.15335 -11.6995 -9.80246
upperneck 6.11771 40.9429 5.93957
head 167.168 61.9143 -37.8447
rclavicle 2.62893e-014 5.1684e-015
rhumerus -40.5918 -30.0695 -79.4696
rradius 16.6397
rwrist 28.3138
rhand -36.7185 2.08637
rfingers 7.12502
rthumb -9.80306 -27.6654
lclavicle 2.62893e-014 5.1684e-015
lhumerus -40.0106 16.963 80.6468
lradius 20.1744
lwrist -42.5931
lhand -33.5485 3.28313
lfingers 7.12502
lthumb -6.74374 33.1557
rfemur -5.57637 -13.7888 20.0304
rtibia 11.8852
rfoot -11.3954 11.1249
rtoes 1.90833e-014
lfemur -11.015 14.5105 -18.7751
ltibia 15.7103
lfoot -4.98773 -15.0226
ltoes -3.18055e-014
116
root -13.6709 16.6514 4.60022 -108.021 87.9259 -116.219
lowerback -11.1107 -0.862745 2.88611
upperback -3.61536 -1.28366 -1.25354
thorax 2.35633 -0.592861 -3.09224
lowerneck -5.17377 -11.7309 -9.77884
upperneck 6.09456 40.8674 5.91653
head 167.053 61.9745 -37.9179
rclavicle 1.03368e-014 7.95139e-016
rhumerus -40.5415 -30.0632 -79.5255
rradius 16.6437
rwrist 28.206
rhand -36.7507 2.07489
rfingers 7.12502
rthumb -9.83409 -27.6755
lclavicle 1.03368e-014 7.95139e-016
lhumerus -39.9545 16.9257 80.6691
lradius 20.1674
lwrist -42.5856
lhand -33.5649 3.29373
lfingers 7.12502
lthumb -6.75959 33.1658
rfemur -5.55584 -13.7717 20.0025
rtibia 11.89
rfoot -11.3714 11.0999
rtoes 6.44062e-014
lfemur -10.995 14.4773 -18.7923
ltibia 15.708
lfoot -4.9863 -15.0045
ltoes -1.43125e-014
117
root -13.6703 16.6523 4.60017 -107.796 87.9089 -116.011
lowerback -11.1348 -0.871585 2.90974
upperback -3.60849 -1.29884 -1.24934
thorax 2.37504 -0.600039 -3.10381
lowerneck -5.19629 -11.7211 -9.76811
upperneck 6.09482 40.8936 5.92397
head 167.076 61.9567 -37.9088
rclavicle -1.57537e-014 -5.1684e-015
rhumerus -40.5209 -30.0151 -79.5799
rradius 16.6707
rwrist 28.1717
rhand -36.7442 2.0765
rfingers 7.12502
rthumb -9.82784 -27.6741
lclavicle -1.57537e-014 -5.1684e-015
lhumerus -39.9372 16.9795 80.6439
lradius 20.1739
lwrist -42.5577
lhand -33.5576 3.28853
lfingers 7.12502
lthumb -6.75249 33.1609
rfemur -5.57932 -13.7981 20.0276
rtibia 11.8866
rfoot -11.3695 11.1407
rtoes -5.88403e-014
lfemur -11.0136 14.4779 -18.7754
ltibia 15.7124
lfoot -4.98915 -14.9881
ltoes -7.95139e-015
118
root -13.671 16.6517 4.60089 -107.789 87.9057 -115.985
lowerback -11.0941 -0.862929 2.92008
upperback -3.61647 -1.28716 -1.25715
thorax 2.34487 -0.594982 -3.11526
lowerneck -5.18305 -11.7243 -9.76324
upperneck 6.11744 40.9447 5.94418
head 167.096 61.9218 -37.9086
rclavicle -5.91384e-015 -6.75868e-015
rhumerus -40.5762 -30.0999 -79.5155
rradius 16.6506
rwrist 28.287
rhand -36.7413 2.08636
rfingers 7.12502
rthumb -9.82506 -27.6644
lclavicle -5.91384e-015 -6.75868e-015
lhumerus -39.9756 16.9419 80.6377
lradius 20.2161
lwrist -42.6699
lhand -33.5104 3.3542
lfingers 7.12502
lthumb -6.70699 33.228
rfemur -5.54792 -13.7626 20.0315
rtibia 11.8681
rfoot -11.349 11.095
rtoes -1.11319e-014
lfemur -10.9939 14.464 -18.7639
ltibia 15.7225
lfoot -5.00769 -14.9731
ltoes 1.27222e-014
119
root -13.6711 16.652 4.60141 -108.102 87.8835 -116.299
lowerback -11.1079 -0.864452 2.93851
upperback -3.59668 -1.29259 -1.25095
thorax 2.37232 -0.597199 -3.12051
lowerneck -5.18728 -11.7381 -9.76598
upperneck 6.08392 40.8368 5.9067
head 166.993 62.0196 -37.96
rclavicle -9.93923e-015 -7.55382e-015
rhumerus -40.576 -30.1852 -79.4496
rradius 16.636
rwrist 28.4498
rhand -36.7116 2.15658
rfingers 7.12502
rthumb -9.79642 -27.5956
lclavicle -9.93923e-015 -7.55382e-015
lhumerus -39.9393 16.9974 80.6323
lradius 20.1972
lwrist -42.6455
lhand -33.5664 3.2752
lfingers 7.12502
lthumb -6.76102 33.1473
rfemur -5.54272 -13.77 20.054
rtibia 11.8557
rfoot -11.3543 11.09
rtoes -9.46215e-014
lfemur -11.0019 14.4595 -18.7442
ltibia 15.7278
lfoot -4.98988 -14.9774
ltoes -8.26944e-014
120
root -13.6707 16.6518 4.60146 -107.888 87.8707 -116.089
lowerback -11.098 -0.870721 2.94636
upperback -3.6009 -1.30168 -1.24313
thorax 2.36183 -0.601958 -3.11764
lowerneck -5.21568 -11.7451 -9.74353
upperneck 6.09692 40.8851 5.91389
head 166.924 62.0026 -38.0252
rclavicle 3.23025e-015 -8.34896e-015
rhumerus -40.5188 -30.0482 -79.5704
rradius 16.6476
rwrist 28.2232
rhand -36.7588 2.05835
rfingers 7.12502
rthumb -9.84194 -27.6916
lclavicle 3.23025e-015 -8.34896e-015
lhumerus -39.9338 16.9893 80.6301
lradius 20.1605
lwrist -42.6195
lhand -33.5874 3.28102
lfingers 7.12502
lthumb -6.78132 33.1524
rfemur -5.53888 -13.71 20.0655
rtibia 11.852
rfoot -11.3782 11.0434
rtoes -5.725e-014
lfemur -11.0077 14.4535 -18.7277
ltibia 15.7344
lfoot -4.98345 -14.9832
ltoes -5.725e-014
121
root -13.6694 16.6519 4.60083 -107.724 87.8953 -115.95
lowerback -11.1215 -0.868704 2.93628
upperback -3.61899 -1.29731 -1.24603
thorax 2.3563 -0.59971 -3.1147
lowerneck -5.19463 -11.7089 -9.78243
upperneck 6.12186 40.9757 5.9424
head 167.086 61.9442 -37.9287
rclavicle 1.0635e-014 -1.03368e-014
rhumerus -40.5667 -30.1278 -79.4784
rradius 16.6082
rwrist 28.3691
rhand -36.7451 2.12827
rfingers 7.12502
rthumb -9.82875 -27.6223
lclavicle 1.0635e-014 -1.03368e-014
lhumerus -39.9854 17.0248 80.6271
lradius 20.1969
lwrist -42.629
lhand -33.6123 3.3355
lfingers 7.12502
lthumb -6.80533 33.2061
rfemur -5.56643 -13.7419 20.0429
rtibia 11.8625
rfoot -11.3613 11.0827
rtoes -1.03368e-014
lfemur -11.0189 14.4378 -18.7569
ltibia 15.7244
lfoot -4.9844 -14.9467
ltoes -2.38542e-014
122
root -13.6701 16.6513 4.60146 -108.012 87.8917 -116.241
lowerback -11.1116 -0.87768 2.91894
upperback -3.62275 -1.3072 -1.23912
thorax 2.34688 -0.60478 -3.09864
lowerneck -5.1942 -11.6996 -9.78224
upperneck 6.13738 41.0297 5.96119
head 167.147 61.8929 -37.8961
rclavicle 1.0635e-014 1.94809e-014
rhumerus -40.5499 -30.0165 -79.5485
rradius 16.6413
rwrist 28.2175
rhand -36.7579 2.11353
rfingers 7.12502
rthumb -9.84105 -27.6365
lclavicle 1.0635e-014 1.94809e-014
lhumerus -40.0197 17.0923 80.5769
lradius 20.2231
lwrist -42.7568
lhand -33.5165 3.33755
lfingers 7.12502
lthumb -6.71282 33.2111
rfemur -5.58276 -13.7473 20.049
rtibia 11.8842
rfoot -11.3609 11.0713
rtoes 3.49861e-014
lfemur -11.024 14.4646 -18.7602
ltibia 15.7071
lfoot -4.97558 -14.986
ltoes 1.11319e-014
123
root -13.6692 16.652 4.60186 -108.394 87.9215 -116.628
lowerback -11.1114 -0.8811 2.88482
upperback -3.63046 -1.3074 -1.24544
thorax 2.33946 -0.604912 -3.08585
lowerneck -5.17516 -11.7067 -9.78766
upperneck 6.12684 40.9682 5.93931
head 167.056 61.9655 -37.9454
rclavicle -5.1684e-015 3.97569e-016
rhumerus -40.5943 -30.0892 -79.4498
rradius 16.6068
rwrist 28.3672
rhand -36.6933 2.21625
rfingers 7.12502
rthumb -9.77871 -27.5367
lclavicle -5.1684e-015 3.97569e-016
lhumerus -40.0207 17.0962 80.5789
lradius 20.1951
lwrist -42.7866
lhand -33.5278 3.35588
lfingers 7.12502
lthumb -6.72372 33.2291
rfemur -5.60787 -13.7513 20.0186
rtibia 11.9167
rfoot -11.3799 11.0675
rtoes -9.70069e-014
lfemur -11.0189 14.4707 -18.7967
ltibia 15.6876
lfoot -4.98269 -15.0083
ltoes -2.38542e-014
124
root -13.6692 16.6519 4.60138 -108.622 87.929 -116.877
lowerback -11.1289 -0.884793 2.87992
upperback -3.62477 -1.31217 -1.24932
thorax 2.35465 -0.60694 -3.08822
lowerneck -5.19329 -11.721 -9.76165
upperneck 6.12071 40.9487 5.9336
head 166.985 61.9839 -37.9957
rclavicle 5.36719e-015 3.57812e-015
rhumerus -40.5903 -30.1229 -79.4424
rradius 16.6128
rwrist 28.4243
rhand -36.6763 2.17884
rfingers 7.12502
rthumb -9.76237 -27.5749
lclavicle 5.36719e-015 3.57812e-015
lhumerus -40.0049 17.1228 80.5768
lradius 20.2102
lwrist -42.7695
lhand -33.5167 3.3369
lfingers 7.12502
lthumb -6.713 33.2105
rfemur -5.63269 -13.781 20.0099
rtibia 11.9228
rfoot -11.3596 11.0994
rtoes 4.45278e-014
lfemur -11.0386 14.442 -18.813
ltibia 15.6782
lfoot -4.98321 -14.9727
ltoes 4.77083e-015
125
root -13.6691 16.6519 4.60195 -108.538 87.9207 -116.782
lowerback -11.1412 -0.867264 2.90028
upperback -3.60043 -1.2921 -1.26132
thorax 2.38739 -0.596444 -3.11038
lowerneck -5.20826 -11.7498 -9.7338
upperneck 6.10549 40.8941 5.92286
head 166.904 62.0289 -38.0514
rclavicle -6.80837e-015 1.59028e-015
rhumerus -40.5618 -30.1088 -79.516
rradius 16.6513
rwrist 28.3162
rhand -36.6838 2.05548
rfingers 7.12502
rthumb -9.76958 -27.6979
lclavicle -6.80837e-015 1.59028e-015
lhumerus -39.9597 17.0622 80.597
lradius 20.1995
lwrist -42.7879
lhand -33.488 3.34814
lfingers 7.12502
lthumb -6.68531 33.2226
rfemur -5.62286 -13.8087 20.0199
rtibia 11.9261
rfoot -11.3946 11.1129
rtoes -4.37326e-014
lfemur -11.025 14.4627 -18.7988
ltibia 15.6745
lfoot -4.97995 -14.9985
ltoes 1.59028e-015
126
root -13.6692 16.6527 4.60201 -108.667 87.9032 -116.893
lowerback -11.1064 -0.871687 2.9113
upperback -3.59793 -1.29911 -1.25088
thorax 2.37042 -0.60042 -3.10582
lowerneck -5.21043 -11.7491 -9.7382
upperneck 6.10616 40.896 5.91922
head 166.88 62.043 -38.071
rclavicle -2.5345e-015 6.75868e-015
rhumerus -40.5331 -30.0367 -79.5559
rradius 16.6583
rwrist 28.1892
rhand -36.7032 2.07337
rfingers 7.12502
rthumb -9.78833 -27.6791
lclavicle -2.5345e-015 6.75868e-015
lhumerus -39.9486 17.0275 80.6407
lradius 20.2017
lwrist -42.7025
lhand -33.466 3.34003
lfingers 7.12502
lthumb -6.66412 33.2152
rfemur -5.59202 -13.7968 20.0284
rtibia 11.9147
rfoot -11.388 11.1014
rtoes 9.54166e-015
lfemur -11.0143 14.4702 -18.7804
ltibia 15.6844
lfoot -4.99197 -15.0073
ltoes 4.45278e-014
127
root -13.6692 16.6523 4.60228 -108.582 87.8974 -116.816
lowerback -11.1042 -0.871474 2.91617
upperback -3.60172 -1.29936 -1.245
thorax 2.36529 -0.600637 -3.10236
lowerneck -5.21392 -11.74 -9.74844
upperneck 6.11657 40.9419 5.93105
head 166.937 61.9994 -38.0391
rclavicle 1.27222e-014 -5.56597e-015
rhumerus -40.5432 -29.9588 -79.5903
rradius 16.6875
rwrist 28.122
rhand -36.7359 2.05565
rfingers 7.12502
rthumb -9.81985 -27.6954
lclavicle 1.27222e-014 -5.56597e-015
lhumerus -39.9365 16.9701 80.6908
lradius 20.192
lwrist -42.6
lhand -33.5791 3.26188
lfingers 7.12502
lthumb -6.77324 33.1335
rfemur -5.59221 -13.7923 20.0397
rtibia 11.9007
rfoot -11.4252 11.0922
rtoes 3.26007e-014
lfemur -11.0243 14.4677 -18.7745
ltibia 15.6995
lfoot -4.9871 -14.9976
ltoes 3.81667e-014
128
root -13.6694 16.6523 4.6027 -108.81 87.8915 -117.037
lowerback -11.0903 -0.868848 2.92225
upperback -3.59342 -1.29636 -1.25467
thorax 2.36617 -0.599242 -3.11531
lowerneck -5.21675 -11.7533 -9.72478
upperneck 6.10598 40.8999 5.92841
head 166.906 62.0367 -38.0593
rclavicle -1.20762e-014 3.97569e-016
rhumerus -40.5657 -30.1034 -79.5137
rradius 16.6502
rwrist 28.302
rhand -36.7244 2.12822
rfingers 7.12502
rthumb -9.80872 -27.6233
lclavicle -1.20762e-014 3.97569e-016
lhumerus -39.9298 16.9979 80.6487
lradius 20.1882
lwrist -42.7612
lhand -33.4873 3.34534
lfingers 7.12502
lthumb -6.68465 33.2198
rfemur -5.58378 -13.8057 20.044
rtibia 11.8918
rfoot -11.4016 11.0999
rtoes -5.24792e-014
lfemur -11.0252 14.4962 -18.7704
ltibia 15.7033
lfoot -4.98076 -15.0344
ltoes 7.95139e-015
